<svg xmlns="http://www.w3.org/2000/svg" viewBox="0 0 32 32" width="32" height="32">
  <defs>
    <linearGradient id="bg" x1="0%" y1="0%" x2="100%" y2="100%">
      <stop offset="0%" style="stop-color:#7B61C4"/>
      <stop offset="100%" style="stop-color:#6750A4"/>
    </linearGradient>
  </defs>
  <rect width="32" height="32" rx="8" fill="url(#bg)"/>
  <path d="M22.5 10.2c-.7.3-1.5.5-2.3.6.8-.5 1.5-1.3 1.8-2.2-.8.5-1.6.8-2.5 1-.7-.8-1.8-1.3-3-1.3-2.3 0-4.1 1.8-4.1 4.1 0 .3 0 .6.1.9-3.4-.2-6.4-1.8-8.4-4.3-.4.6-.6 1.3-.6 2 0 1.4.7 2.7 1.8 3.4-.7 0-1.3-.2-1.9-.5v.1c0 2 1.4 3.6 3.3 4-.3.1-.7.1-1.1.1-.3 0-.5 0-.8-.1.5 1.6 2 2.8 3.8 2.8-1.4 1.1-3.2 1.7-5.1 1.7-.3 0-.7 0-1-.1 1.8 1.2 4 1.9 6.3 1.9 7.5 0 11.7-6.3 11.7-11.7v-.5c.8-.6 1.5-1.3 2-2.2z" fill="white" transform="translate(3,2) scale(0.85)"/>
</svg>
